<svg width="14" height="14" viewBox="0 0 14 14" fill="none" xmlns="http://www.w3.org/2000/svg">
<g opacity="0.5" clip-path="url(#clip0_267_457)">
<path d="M6.99935 9.33332C8.28801 9.33332 9.33268 8.28865 9.33268 6.99999C9.33268 5.71133 8.28801 4.66666 6.99935 4.66666C5.71068 4.66666 4.66602 5.71133 4.66602 6.99999C4.66602 8.28865 5.71068 9.33332 6.99935 9.33332Z" stroke="#010624" stroke-linecap="round" stroke-linejoin="round"/>
<path d="M9.33269 4.66666V7.58333C9.33269 8.04746 9.51706 8.49258 9.84525 8.82076C10.1734 9.14895 10.6186 9.33333 11.0827 9.33333C11.5468 9.33333 11.9919 9.14895 12.3201 8.82076C12.6483 8.49258 12.8327 8.04746 12.8327 7.58333V6.99999C12.8326 5.68343 12.3872 4.40561 11.5688 3.3743C10.7504 2.343 9.60718 1.61888 8.32506 1.31967C7.04295 1.02046 5.69732 1.16377 4.50697 1.72629C3.31663 2.28881 2.35159 3.23747 1.76875 4.418C1.18592 5.59853 1.01958 6.94151 1.29679 8.22856C1.57399 9.51561 2.27842 10.671 3.29556 11.507C4.31269 12.3429 5.58269 12.8102 6.89906 12.8328C8.21543 12.8555 9.50075 12.4321 10.546 11.6317" stroke="#010624" stroke-linecap="round" stroke-linejoin="round"/>
</g>
<defs>
<clipPath id="clip0_267_457">
<rect width="14" height="14" fill="white"/>
</clipPath>
</defs>
</svg>
